<svg width="40" height="40" viewBox="0 0 40 40" fill="none" xmlns="http://www.w3.org/2000/svg">
<mask id="mask0_6592_83202" style="mask-type:alpha" maskUnits="userSpaceOnUse" x="0" y="0" width="40" height="40">
<rect width="40" height="40" fill="white"/>
</mask>
<g mask="url(#mask0_6592_83202)">
<path d="M30.625 36.793L32.5417 34.8763L25.125 27.4596L23.2083 29.3763C22.1806 30.4041 21.6667 31.6402 21.6667 33.0846C21.6667 34.5291 22.1806 35.7652 23.2083 36.793C24.2361 37.8208 25.4722 38.3346 26.9167 38.3346C28.3611 38.3346 29.5972 37.8208 30.625 36.793ZM34.875 32.543L36.7917 30.6263C37.8194 29.5985 38.3333 28.3624 38.3333 26.918C38.3333 25.4735 37.8194 24.2374 36.7917 23.2096C35.7639 22.1819 34.5278 21.668 33.0833 21.668C31.6389 21.668 30.4028 22.1819 29.375 23.2096L27.4583 25.1263L34.875 32.543ZM11.6667 15.0013H28.3333V11.668H11.6667V15.0013ZM20 7.08464C20.3611 7.08464 20.6597 6.96658 20.8958 6.73047C21.1319 6.49436 21.25 6.19575 21.25 5.83464C21.25 5.47352 21.1319 5.17491 20.8958 4.9388C20.6597 4.70269 20.3611 4.58464 20 4.58464C19.6389 4.58464 19.3403 4.70269 19.1042 4.9388C18.8681 5.17491 18.75 5.47352 18.75 5.83464C18.75 6.19575 18.8681 6.49436 19.1042 6.73047C19.3403 6.96658 19.6389 7.08464 20 7.08464ZM18.5417 35.0013H8.33333C7.41667 35.0013 6.63194 34.6749 5.97917 34.0221C5.32639 33.3694 5 32.5846 5 31.668V8.33464C5 7.41797 5.32639 6.63325 5.97917 5.98047C6.63194 5.32769 7.41667 5.0013 8.33333 5.0013H15.3333C15.6944 4.0013 16.2986 3.19575 17.1458 2.58464C17.9931 1.97352 18.9444 1.66797 20 1.66797C21.0556 1.66797 22.0069 1.97352 22.8542 2.58464C23.7014 3.19575 24.3056 4.0013 24.6667 5.0013H31.6667C32.5833 5.0013 33.3681 5.32769 34.0208 5.98047C34.6736 6.63325 35 7.41797 35 8.33464V18.543C33.8333 18.2652 32.6736 18.2444 31.5208 18.4805C30.3681 18.7166 29.3056 19.1541 28.3333 19.793V18.3346H11.6667V21.668H26.2083L22.875 25.0013H11.6667V28.3346H19.7917C19.1528 29.3069 18.7153 30.3694 18.4792 31.5221C18.2431 32.6749 18.2639 33.8346 18.5417 35.0013Z" fill="white"/>
</g>
</svg>
