<svg width="40" height="40" viewBox="0 0 40 40" fill="none" xmlns="http://www.w3.org/2000/svg">
<mask id="mask0_6592_81311" style="mask-type:alpha" maskUnits="userSpaceOnUse" x="0" y="0" width="40" height="40">
<rect width="40" height="40" rx="16" fill="white"/>
</mask>
<g mask="url(#mask0_6592_81311)">
<path d="M6.33072 33.3346C3.7534 33.3346 1.66406 31.2453 1.66406 28.668C1.66406 27.7235 1.90712 26.8555 2.39323 26.0638C2.87934 25.2721 3.52517 24.668 4.33073 24.2513C6.05295 23.3902 7.80295 22.7444 9.58073 22.3138C11.3585 21.8832 13.1641 21.668 14.9974 21.668C16.8307 21.668 18.6363 21.8832 20.4141 22.3138C22.1918 22.7444 23.9418 23.3902 25.6641 24.2513C26.4696 24.668 27.1155 25.2721 27.6016 26.0638C28.0877 26.8555 28.3307 27.7235 28.3307 28.668C28.3307 31.2453 26.2414 33.3346 23.6641 33.3346H6.33072ZM34.9974 33.3346C33.1564 33.3346 31.6641 31.8423 31.6641 30.0013V28.3346C31.6641 27.1124 31.3238 25.9388 30.6432 24.8138C30.1226 23.9532 30.79 22.4636 31.7474 22.7721C32.9974 23.1749 34.1641 23.668 35.2474 24.2513C36.2474 24.8069 37.0113 25.4249 37.5391 26.1055C38.0668 26.786 38.3307 27.5291 38.3307 28.3346V30.0013C38.3307 31.8423 36.8383 33.3346 34.9974 33.3346ZM14.9974 20.0013C13.1641 20.0013 11.5946 19.3485 10.2891 18.043C8.98351 16.7374 8.33073 15.168 8.33073 13.3346C8.33073 11.5013 8.98351 9.93186 10.2891 8.6263C11.5946 7.32075 13.1641 6.66797 14.9974 6.66797C16.8307 6.66797 18.4002 7.32075 19.7057 8.6263C21.0113 9.93186 21.6641 11.5013 21.6641 13.3346C21.6641 15.168 21.0113 16.7374 19.7057 18.043C18.4002 19.3485 16.8307 20.0013 14.9974 20.0013ZM31.6641 13.3346C31.6641 15.168 31.0113 16.7374 29.7057 18.043C28.4002 19.3485 26.8307 20.0013 24.9974 20.0013C24.6918 20.0013 24.303 19.9666 23.8307 19.8971C23.2818 19.8164 23.0709 19.1792 23.3765 18.7161C23.7901 18.0891 24.129 17.4203 24.3932 16.7096C24.796 15.6263 24.9974 14.5013 24.9974 13.3346C24.9974 12.168 24.796 11.043 24.3932 9.95964C24.1303 9.25241 23.7934 8.58662 23.3824 7.96226C23.063 7.47685 23.2529 6.79238 23.8307 6.73047C24.2196 6.6888 24.6085 6.66797 24.9974 6.66797C26.8307 6.66797 28.4002 7.32075 29.7057 8.6263C31.0113 9.93186 31.6641 11.5013 31.6641 13.3346Z" fill="white"/>
</g>
</svg>
