<svg width="40" height="40" viewBox="0 0 40 40" fill="none" xmlns="http://www.w3.org/2000/svg">
<mask id="mask0_6592_83040" style="mask-type:alpha" maskUnits="userSpaceOnUse" x="0" y="0" width="40" height="40">
<rect width="40" height="40" fill="white"/>
</mask>
<g mask="url(#mask0_6592_83040)">
<path d="M11.6693 34.9987C10.7526 34.9987 9.96788 34.6723 9.3151 34.0195C8.66233 33.3668 8.33594 32.582 8.33594 31.6654V13.332C8.33594 12.4154 8.66233 11.6306 9.3151 10.9779C9.96788 10.3251 10.7526 9.9987 11.6693 9.9987H15.0026V6.66536C15.0026 5.7487 15.329 4.96398 15.9818 4.3112C16.6345 3.65842 17.4193 3.33203 18.3359 3.33203H21.6693C22.5859 3.33203 23.3707 3.65842 24.0234 4.3112C24.6762 4.96398 25.0026 5.7487 25.0026 6.66536V9.9987H28.3359C29.2526 9.9987 30.0373 10.3251 30.6901 10.9779C31.3429 11.6306 31.6693 12.4154 31.6693 13.332V31.6654C31.6693 32.582 31.3429 33.3668 30.6901 34.0195C30.0373 34.6723 29.2526 34.9987 28.3359 34.9987C28.3359 35.4709 28.1762 35.8668 27.8568 36.1862C27.5373 36.5056 27.1415 36.6654 26.6693 36.6654C26.1971 36.6654 25.8012 36.5056 25.4818 36.1862C25.1623 35.8668 25.0026 35.4709 25.0026 34.9987H15.0026C15.0026 35.4709 14.8429 35.8668 14.5234 36.1862C14.204 36.5056 13.8082 36.6654 13.3359 36.6654C12.8637 36.6654 12.4679 36.5056 12.1484 36.1862C11.829 35.8668 11.6693 35.4709 11.6693 34.9987ZM15.0026 29.9987H18.3359V14.9987H15.0026V29.9987ZM21.6693 29.9987H25.0026V14.9987H21.6693V29.9987ZM18.3359 9.9987H21.6693V6.66536H18.3359V9.9987Z" fill="white"/>
</g>
</svg>
