<svg width="40" height="40" viewBox="0 0 40 40" fill="none" xmlns="http://www.w3.org/2000/svg">
<mask id="mask0_6592_83196" style="mask-type:alpha" maskUnits="userSpaceOnUse" x="0" y="0" width="40" height="40">
<rect width="40" height="40" fill="white"/>
</mask>
<g mask="url(#mask0_6592_83196)">
<path d="M13.6667 26.293C14.4722 27.0985 15.4236 27.5082 16.5208 27.5221C17.6181 27.536 18.5694 27.1402 19.375 26.3346L21.7083 24.0013L16 18.293L13.6667 20.6263C12.8611 21.4319 12.4583 22.3763 12.4583 23.4596C12.4583 24.543 12.8611 25.4874 13.6667 26.293ZM26.3333 13.7096C25.5278 12.9319 24.5764 12.5291 23.4792 12.5013C22.3819 12.4735 21.4306 12.8624 20.625 13.668L18.3333 15.9596L24.0417 21.668L26.3333 19.3763C27.1389 18.5707 27.5347 17.6263 27.5208 16.543C27.5069 15.4596 27.1111 14.5152 26.3333 13.7096ZM8.33333 35.0013C7.41667 35.0013 6.63194 34.6749 5.97917 34.0221C5.32639 33.3694 5 32.5846 5 31.668V8.33464C5 7.41797 5.32639 6.63325 5.97917 5.98047C6.63194 5.32769 7.41667 5.0013 8.33333 5.0013H15.3333C15.6944 4.0013 16.2986 3.19575 17.1458 2.58464C17.9931 1.97352 18.9444 1.66797 20 1.66797C21.0556 1.66797 22.0069 1.97352 22.8542 2.58464C23.7014 3.19575 24.3056 4.0013 24.6667 5.0013H31.6667C32.5833 5.0013 33.3681 5.32769 34.0208 5.98047C34.6736 6.63325 35 7.41797 35 8.33464V31.668C35 32.5846 34.6736 33.3694 34.0208 34.0221C33.3681 34.6749 32.5833 35.0013 31.6667 35.0013H8.33333ZM20 7.08464C20.3611 7.08464 20.6597 6.96658 20.8958 6.73047C21.1319 6.49436 21.25 6.19575 21.25 5.83464C21.25 5.47352 21.1319 5.17491 20.8958 4.9388C20.6597 4.70269 20.3611 4.58464 20 4.58464C19.6389 4.58464 19.3403 4.70269 19.1042 4.9388C18.8681 5.17491 18.75 5.47352 18.75 5.83464C18.75 6.19575 18.8681 6.49436 19.1042 6.73047C19.3403 6.96658 19.6389 7.08464 20 7.08464Z" fill="white"/>
</g>
</svg>
