<svg width="40" height="40" viewBox="0 0 40 40" fill="none" xmlns="http://www.w3.org/2000/svg">
<mask id="mask0_6592_81334" style="mask-type:alpha" maskUnits="userSpaceOnUse" x="0" y="0" width="40" height="40">
<rect width="40" height="40" rx="16" fill="white"/>
</mask>
<g mask="url(#mask0_6592_81334)">
<path d="M14.1042 24.1354C16.0602 26.0914 19.2315 26.0914 21.1875 24.1354L28.2292 17.0938C28.8735 16.4494 28.8735 15.4048 28.2292 14.7604C27.5848 14.1161 26.5402 14.1161 25.8958 14.7604L20.0208 20.6354C18.7092 21.9471 16.5825 21.9471 15.2708 20.6354L14.0625 19.4271C13.4182 18.7828 12.3735 18.7828 11.7292 19.4271C11.0848 20.0714 11.0848 21.1161 11.7292 21.7604L14.1042 24.1354ZM19.9792 36.6771C17.6736 36.6771 15.5069 36.2396 13.4792 35.3646C11.4514 34.4896 9.6875 33.3021 8.1875 31.8021C6.6875 30.3021 5.5 28.5382 4.625 26.5104C3.75 24.4826 3.3125 22.316 3.3125 20.0104C3.3125 17.7049 3.75 15.5382 4.625 13.5104C5.5 11.4826 6.6875 9.71875 8.1875 8.21875C9.6875 6.71875 11.4514 5.53125 13.4792 4.65625C15.5069 3.78125 17.6736 3.34375 19.9792 3.34375C22.2847 3.34375 24.4514 3.78125 26.4792 4.65625C28.507 5.53125 30.2708 6.71875 31.7708 8.21875C33.2708 9.71875 34.4583 11.4826 35.3333 13.5104C36.2083 15.5382 36.6458 17.7049 36.6458 20.0104C36.6458 22.316 36.2083 24.4826 35.3333 26.5104C34.4583 28.5382 33.2708 30.3021 31.7708 31.8021C30.2708 33.3021 28.507 34.4896 26.4792 35.3646C24.4514 36.2396 22.2847 36.6771 19.9792 36.6771Z" fill="white"/>
</g>
</svg>
