<svg width="40" height="40" viewBox="0 0 40 40" fill="none" xmlns="http://www.w3.org/2000/svg">
<mask id="mask0_6592_83218" style="mask-type:alpha" maskUnits="userSpaceOnUse" x="0" y="0" width="40" height="40">
<rect width="40" height="40" fill="white"/>
</mask>
<g mask="url(#mask0_6592_83218)">
<path d="M17.8359 21.2083L16.4193 19.0833C16.2804 18.8611 16.0859 18.6806 15.8359 18.5417C15.5859 18.4028 15.322 18.3333 15.0443 18.3333H4.1276C3.82205 17.6111 3.61372 16.9167 3.5026 16.25C3.39149 15.5833 3.33594 14.8889 3.33594 14.1667C3.33594 11.5556 4.21094 9.375 5.96094 7.625C7.71094 5.875 9.89149 5 12.5026 5C13.947 5 15.322 5.30556 16.6276 5.91667C17.9332 6.52778 19.0582 7.38889 20.0026 8.5C20.947 7.38889 22.072 6.52778 23.3776 5.91667C24.6832 5.30556 26.0582 5 27.5026 5C30.1137 5 32.2943 5.875 34.0443 7.625C35.7943 9.375 36.6693 11.5556 36.6693 14.1667C36.6693 14.8889 36.6137 15.5833 36.5026 16.25C36.3915 16.9167 36.1832 17.6111 35.8776 18.3333H25.9609L23.0859 14.0833C22.9193 13.8333 22.704 13.6458 22.4401 13.5208C22.1762 13.3958 21.8915 13.3333 21.5859 13.3333C21.2248 13.3333 20.9123 13.4375 20.6484 13.6458C20.3845 13.8542 20.197 14.125 20.0859 14.4583L17.8359 21.2083ZM20.0026 35.5833L17.5859 33.4167C14.6693 30.8056 12.2804 28.5694 10.4193 26.7083C8.55816 24.8472 7.09983 23.1667 6.04427 21.6667H14.0443L16.9193 25.9167C17.0859 26.1667 17.3012 26.3542 17.5651 26.4792C17.829 26.6042 18.1137 26.6667 18.4193 26.6667C18.7804 26.6667 19.0929 26.5625 19.3568 26.3542C19.6207 26.1458 19.8082 25.875 19.9193 25.5417L22.1693 18.75L23.6276 20.9167C23.7665 21.1389 23.9609 21.3194 24.2109 21.4583C24.4609 21.5972 24.7248 21.6667 25.0026 21.6667H33.9609C32.9054 23.1667 31.447 24.8472 29.5859 26.7083C27.7248 28.5694 25.3359 30.8056 22.4193 33.4167L20.0026 35.5833Z" fill="white"/>
</g>
</svg>
