<svg width="40" height="40" viewBox="0 0 40 40" fill="none" xmlns="http://www.w3.org/2000/svg">
<mask id="mask0_6592_82602" style="mask-type:alpha" maskUnits="userSpaceOnUse" x="0" y="0" width="40" height="40">
<rect width="40" height="40" fill="white"/>
</mask>
<g mask="url(#mask0_6592_82602)">
<path d="M14.7526 26.0846L29.5859 22.168C30.0026 22.0569 30.3151 21.7999 30.5234 21.3971C30.7318 20.9944 30.7804 20.5846 30.6693 20.168C30.5582 19.7513 30.3151 19.4388 29.9401 19.2305C29.5651 19.0221 29.1693 18.9735 28.7526 19.0846L24.6693 20.168L18.0026 13.918L15.6693 14.5013L19.6693 21.5013L15.6693 22.5013L13.5859 20.918L12.0026 21.3346L14.7526 26.0846ZM33.3359 33.3346H6.66927C5.7526 33.3346 4.96788 33.0082 4.3151 32.3555C3.66233 31.7027 3.33594 30.918 3.33594 30.0013V23.3346C4.2526 23.3346 5.03733 23.0082 5.6901 22.3555C6.34288 21.7027 6.66927 20.918 6.66927 20.0013C6.66927 19.0846 6.34288 18.2999 5.6901 17.6471C5.03733 16.9944 4.2526 16.668 3.33594 16.668V10.0013C3.33594 9.08464 3.66233 8.29991 4.3151 7.64714C4.96788 6.99436 5.7526 6.66797 6.66927 6.66797H33.3359C34.2526 6.66797 35.0373 6.99436 35.6901 7.64714C36.3429 8.29991 36.6693 9.08464 36.6693 10.0013V30.0013C36.6693 30.918 36.3429 31.7027 35.6901 32.3555C35.0373 33.0082 34.2526 33.3346 33.3359 33.3346Z" fill="white"/>
</g>
</svg>
