<svg width="40" height="40" viewBox="0 0 40 40" fill="none" xmlns="http://www.w3.org/2000/svg">
<mask id="mask0_6592_82123" style="mask-type:alpha" maskUnits="userSpaceOnUse" x="0" y="0" width="40" height="40">
<rect width="40" height="40" fill="white"/>
</mask>
<g mask="url(#mask0_6592_82123)">
<path d="M8.33333 35C7.41667 35 6.63194 34.6736 5.97917 34.0208C5.32639 33.3681 5 32.5833 5 31.6667V10.875C5 10.4861 5.0625 10.1111 5.1875 9.75C5.3125 9.38889 5.5 9.05556 5.75 8.75L7.83333 6.20833C8.13889 5.81944 8.52083 5.52083 8.97917 5.3125C9.4375 5.10417 9.91667 5 10.4167 5H29.5833C30.0833 5 30.5625 5.10417 31.0208 5.3125C31.4792 5.52083 31.8611 5.81944 32.1667 6.20833L34.25 8.75C34.5 9.05556 34.6875 9.38889 34.8125 9.75C34.9375 10.1111 35 10.4861 35 10.875V31.6667C35 32.5833 34.6736 33.3681 34.0208 34.0208C33.3681 34.6736 32.5833 35 31.6667 35H8.33333ZM9 10H31L29.5833 8.33333H10.4167L9 10ZM26.6667 13.3333H13.3333V26.6667L20 23.3333L26.6667 26.6667V13.3333Z" fill="white"/>
</g>
</svg>
