<svg width="40" height="40" viewBox="0 0 40 40" fill="none" xmlns="http://www.w3.org/2000/svg">
<mask id="mask0_6592_81422" style="mask-type:alpha" maskUnits="userSpaceOnUse" x="0" y="0" width="40" height="40">
<rect width="40" height="40" rx="16" fill="white"/>
</mask>
<g mask="url(#mask0_6592_81422)">
<path d="M20 7.08464C20.3611 7.08464 20.6597 6.96658 20.8958 6.73047C21.1319 6.49436 21.25 6.19575 21.25 5.83464C21.25 5.47352 21.1319 5.17491 20.8958 4.9388C20.6597 4.70269 20.3611 4.58464 20 4.58464C19.6389 4.58464 19.3403 4.70269 19.1042 4.9388C18.8681 5.17491 18.75 5.47352 18.75 5.83464C18.75 6.19575 18.8681 6.49436 19.1042 6.73047C19.3403 6.96658 19.6389 7.08464 20 7.08464ZM30 38.3346C27.6944 38.3346 25.7292 37.5221 24.1042 35.8971C22.4792 34.2721 21.6667 32.3069 21.6667 30.0013C21.6667 27.6957 22.4792 25.7305 24.1042 24.1055C25.7292 22.4805 27.6944 21.668 30 21.668C32.3056 21.668 34.2708 22.4805 35.8958 24.1055C37.5208 25.7305 38.3333 27.6957 38.3333 30.0013C38.3333 32.3069 37.5208 34.2721 35.8958 35.8971C34.2708 37.5221 32.3056 38.3346 30 38.3346ZM29.1667 34.168C29.1667 34.6282 29.5398 35.0013 30 35.0013C30.4602 35.0013 30.8333 34.6282 30.8333 34.168V32.918C30.8333 31.7674 31.7661 30.8346 32.9167 30.8346H34.1667C34.6269 30.8346 35 30.4615 35 30.0013C35 29.5411 34.6269 29.168 34.1667 29.168H32.9167C31.7661 29.168 30.8333 28.2352 30.8333 27.0846V25.8346C30.8333 25.3744 30.4602 25.0013 30 25.0013C29.5398 25.0013 29.1667 25.3744 29.1667 25.8346V27.0846C29.1667 28.2352 28.2339 29.168 27.0833 29.168H25.8333C25.3731 29.168 25 29.5411 25 30.0013C25 30.4615 25.3731 30.8346 25.8333 30.8346H27.0833C28.2339 30.8346 29.1667 31.7674 29.1667 32.918V34.168ZM11.6667 13.3346C11.6667 14.2551 12.4129 15.0013 13.3333 15.0013H26.6667C27.5871 15.0013 28.3333 14.2551 28.3333 13.3346C28.3333 12.4142 27.5871 11.668 26.6667 11.668H13.3333C12.4129 11.668 11.6667 12.4142 11.6667 13.3346ZM18.5833 32.5638C18.8291 33.7313 18.0546 35.0013 16.8615 35.0013H8.33333C7.41667 35.0013 6.63194 34.6749 5.97917 34.0221C5.32639 33.3694 5 32.5846 5 31.668V8.33464C5 7.41797 5.32639 6.63325 5.97917 5.98047C6.63194 5.32769 7.41667 5.0013 8.33333 5.0013H12.2651C14.1064 5.0013 15.6526 3.66176 17.1458 2.58464C17.9931 1.97352 18.9444 1.66797 20 1.66797C21.0556 1.66797 22.0069 1.97352 22.8542 2.58464C24.3474 3.66176 25.8936 5.0013 27.7349 5.0013H31.6667C32.5833 5.0013 33.3681 5.32769 34.0208 5.98047C34.6736 6.63325 35 7.41797 35 8.33464V16.9064C35 18.1073 33.731 18.9036 32.5625 18.6263C31.7431 18.4319 30.8889 18.3346 30 18.3346C29.6944 18.3346 29.4097 18.3416 29.1458 18.3555C28.9033 18.3682 28.655 18.3986 28.4008 18.4465C28.3658 18.4531 28.3333 18.4265 28.3333 18.3909C28.3333 18.3598 28.3081 18.3346 28.277 18.3346H13.3333C12.4129 18.3346 11.6667 19.0808 11.6667 20.0013C11.6667 20.9218 12.4129 21.668 13.3333 21.668H19.8201C20.5592 21.668 20.9547 22.6112 20.5208 23.2096C19.7727 24.2416 18.647 25.0013 17.3725 25.0013H13.3333C12.4129 25.0013 11.6667 25.7475 11.6667 26.668C11.6667 27.5884 12.4129 28.3346 13.3333 28.3346H17.6385C18.0626 28.3346 18.3765 28.7236 18.3542 29.1471C18.3403 29.411 18.3333 29.6957 18.3333 30.0013C18.3333 30.918 18.4167 31.7721 18.5833 32.5638Z" fill="white"/>
</g>
</svg>
