<svg width="40" height="40" viewBox="0 0 40 40" fill="none" xmlns="http://www.w3.org/2000/svg">
<mask id="mask0_6592_82897" style="mask-type:alpha" maskUnits="userSpaceOnUse" x="0" y="0" width="40" height="40">
<rect width="40" height="40" fill="white"/>
</mask>
<g mask="url(#mask0_6592_82897)">
<path d="M6.66927 33.3346C5.7526 33.3346 4.96788 33.0082 4.3151 32.3555C3.66233 31.7027 3.33594 30.918 3.33594 30.0013V10.0013C3.33594 9.08464 3.66233 8.29991 4.3151 7.64714C4.96788 6.99436 5.7526 6.66797 6.66927 6.66797H33.3359C34.2526 6.66797 35.0373 6.99436 35.6901 7.64714C36.3429 8.29991 36.6693 9.08464 36.6693 10.0013V30.0013C36.6693 30.918 36.3429 31.7027 35.6901 32.3555C35.0373 33.0082 34.2526 33.3346 33.3359 33.3346H6.66927ZM20.0026 21.668L33.3359 13.3346V10.0013L20.0026 18.3346L6.66927 10.0013V13.3346L20.0026 21.668Z" fill="white"/>
</g>
</svg>
