<svg width="40" height="40" viewBox="0 0 40 40" fill="none" xmlns="http://www.w3.org/2000/svg">
<mask id="mask0_6592_81455" style="mask-type:alpha" maskUnits="userSpaceOnUse" x="0" y="0" width="40" height="40">
<rect width="40" height="40" rx="16" fill="white"/>
</mask>
<g mask="url(#mask0_6592_81455)">
<path d="M8.33333 35C7.41667 35 6.63194 34.6736 5.97917 34.0208C5.32639 33.3681 5 32.5833 5 31.6667V8.33333C5 7.41667 5.32639 6.63194 5.97917 5.97917C6.63194 5.32639 7.41667 5 8.33333 5H31.6667C32.5833 5 33.3681 5.32639 34.0208 5.97917C35.0443 7.00263 33.8266 8.33333 32.3792 8.33333H21.6667C19.6944 8.33333 18.0903 8.95139 16.8542 10.1875C15.6181 11.4236 15 13.0278 15 15V25C15 26.9722 15.6181 28.5764 16.8542 29.8125C18.0903 31.0486 19.6944 31.6667 21.6667 31.6667H32.3792C33.8267 31.6667 35.0443 32.9974 34.0208 34.0208C33.3681 34.6736 32.5833 35 31.6667 35H8.33333ZM21.6667 28.3333C20.75 28.3333 19.9653 28.0069 19.3125 27.3542C18.6597 26.7014 18.3333 25.9167 18.3333 25V15C18.3333 14.0833 18.6597 13.2986 19.3125 12.6458C19.9653 11.9931 20.75 11.6667 21.6667 11.6667H33.3333C34.25 11.6667 35.0347 11.9931 35.6875 12.6458C36.3403 13.2986 36.6667 14.0833 36.6667 15V25C36.6667 25.9167 36.3403 26.7014 35.6875 27.3542C35.0347 28.0069 34.25 28.3333 33.3333 28.3333H21.6667ZM26.6667 22.5C27.3889 22.5 27.9861 22.2639 28.4583 21.7917C28.9306 21.3194 29.1667 20.7222 29.1667 20C29.1667 19.2778 28.9306 18.6806 28.4583 18.2083C27.9861 17.7361 27.3889 17.5 26.6667 17.5C25.9444 17.5 25.3472 17.7361 24.875 18.2083C24.4028 18.6806 24.1667 19.2778 24.1667 20C24.1667 20.7222 24.4028 21.3194 24.875 21.7917C25.3472 22.2639 25.9444 22.5 26.6667 22.5Z" fill="white"/>
</g>
</svg>
