<svg width="40" height="40" viewBox="0 0 40 40" fill="none" xmlns="http://www.w3.org/2000/svg">
<mask id="mask0_6592_83046" style="mask-type:alpha" maskUnits="userSpaceOnUse" x="0" y="0" width="40" height="40">
<rect width="40" height="40" fill="white"/>
</mask>
<g mask="url(#mask0_6592_83046)">
<path d="M11.6641 31.6654H14.9974V28.332H11.6641V31.6654ZM11.6641 24.9987H14.9974V18.332H11.6641V24.9987ZM18.3307 31.6654H21.6641V24.9987H18.3307V31.6654ZM18.3307 21.6654H21.6641V18.332H18.3307V21.6654ZM24.9974 31.6654H28.3307V28.332H24.9974V31.6654ZM24.9974 24.9987H28.3307V18.332H24.9974V24.9987ZM9.9974 36.6654C9.08073 36.6654 8.29601 36.339 7.64323 35.6862C6.99045 35.0334 6.66406 34.2487 6.66406 33.332V13.332L16.6641 3.33203H29.9974C30.9141 3.33203 31.6988 3.65842 32.3516 4.3112C33.0043 4.96398 33.3307 5.7487 33.3307 6.66536V33.332C33.3307 34.2487 33.0043 35.0334 32.3516 35.6862C31.6988 36.339 30.9141 36.6654 29.9974 36.6654H9.9974Z" fill="white"/>
</g>
</svg>
