<svg width="40" height="40" viewBox="0 0 40 40" fill="none" xmlns="http://www.w3.org/2000/svg">
<mask id="mask0_6592_81298" style="mask-type:alpha" maskUnits="userSpaceOnUse" x="0" y="0" width="40" height="40">
<rect width="40" height="40" rx="16" fill="white"/>
</mask>
<g mask="url(#mask0_6592_81298)">
<path d="M16.7177 22.1936C16.2831 23.601 17.921 24.7292 19.0994 23.8454C19.6312 23.4465 20.3675 23.4466 20.8958 23.85C22.0446 24.7273 23.6424 23.6128 23.2159 22.2316L23.1513 22.0225C22.9613 21.4074 23.1701 20.7387 23.6764 20.341L23.9426 20.1318C25.1119 19.2131 24.4587 17.3346 22.9716 17.3346C22.2951 17.3346 21.6949 16.8986 21.4866 16.255C21.0209 14.8155 18.9843 14.8155 18.5186 16.255C18.3103 16.8986 17.7075 17.3346 17.031 17.3346C15.5341 17.3346 14.859 19.2197 16.0279 20.1549L16.2476 20.3306C16.7534 20.7353 16.9603 21.4082 16.7692 22.0271L16.7177 22.1936ZM6.66927 33.3346C5.7526 33.3346 4.96788 33.0082 4.3151 32.3555C3.66233 31.7027 3.33594 30.918 3.33594 30.0013V24.3763C3.33594 24.0707 3.43316 23.8069 3.6276 23.5846C4.01128 23.1461 4.67713 23.1093 5.16276 22.7874C5.48876 22.5713 5.77565 22.2954 6.02344 21.9596C6.45399 21.3763 6.66927 20.7235 6.66927 20.0013C6.66927 19.2791 6.45399 18.6263 6.02344 18.043C5.77565 17.7073 5.48876 17.4313 5.16276 17.2152C4.67713 16.8933 4.01128 16.8565 3.6276 16.418C3.43316 16.1957 3.33594 15.9319 3.33594 15.6263V10.0013C3.33594 9.08464 3.66233 8.29991 4.3151 7.64714C4.96788 6.99436 5.7526 6.66797 6.66927 6.66797H33.3359C34.2526 6.66797 35.0373 6.99436 35.6901 7.64714C36.3429 8.29991 36.6693 9.08464 36.6693 10.0013V15.6263C36.6693 15.9319 36.572 16.1957 36.3776 16.418C35.9939 16.8565 35.3281 16.8933 34.8424 17.2152C34.5165 17.4313 34.2296 17.7073 33.9818 18.043C33.5512 18.6263 33.3359 19.2791 33.3359 20.0013C33.3359 20.7235 33.5512 21.3763 33.9818 21.9596C34.2296 22.2954 34.5165 22.5713 34.8424 22.7874C35.3281 23.1093 35.9939 23.1461 36.3776 23.5846C36.572 23.8069 36.6693 24.0707 36.6693 24.3763V30.0013C36.6693 30.918 36.3429 31.7027 35.6901 32.3555C35.0373 33.0082 34.2526 33.3346 33.3359 33.3346H6.66927Z" fill="white"/>
</g>
</svg>
