<svg width="48" height="48" viewBox="0 0 48 48" fill="none" xmlns="http://www.w3.org/2000/svg">
<mask id="mask0_4072_91266" style="mask-type:alpha" maskUnits="userSpaceOnUse" x="0" y="0" width="48" height="48">
<rect width="48" height="48" fill="#C77634"/>
</mask>
<g mask="url(#mask0_4072_91266)">
<path d="M24.0031 43.9992C21.5031 43.9992 19.1615 43.5242 16.9781 42.5742C14.7948 41.6242 12.8948 40.3409 11.2781 38.7242C9.66146 37.1076 8.37813 35.2076 7.42813 33.0242C6.47813 30.8409 6.00313 28.4992 6.00313 25.9992C6.00313 23.4992 6.47813 21.1576 7.42813 18.9742C8.37813 16.7909 9.66146 14.8909 11.2781 13.2742C12.8948 11.6576 14.7948 10.3742 16.9781 9.42422C19.1615 8.47422 21.5031 7.99922 24.0031 7.99922C26.5031 7.99922 28.8448 8.47422 31.0281 9.42422C33.2115 10.3742 35.1115 11.6576 36.7281 13.2742C38.3448 14.8909 39.6281 16.7909 40.5781 18.9742C41.5281 21.1576 42.0031 23.4992 42.0031 25.9992C42.0031 28.4992 41.5281 30.8409 40.5781 33.0242C39.6281 35.2076 38.3448 37.1076 36.7281 38.7242C35.1115 40.3409 33.2115 41.6242 31.0281 42.5742C28.8448 43.5242 26.5031 43.9992 24.0031 43.9992ZM29.6031 34.3992L32.4031 31.5992L26.0031 25.1992V15.9992H22.0031V26.7992L29.6031 34.3992ZM11.2031 4.69922L14.0031 7.49922L5.50313 15.9992L2.70312 13.1992L11.2031 4.69922ZM36.8031 4.69922L45.3031 13.1992L42.5031 15.9992L34.0031 7.49922L36.8031 4.69922Z" fill="#C77634"/>
</g>
</svg>
