<svg width="48" height="48" viewBox="0 0 48 48" fill="none" xmlns="http://www.w3.org/2000/svg">
<mask id="mask0_4074_69292" style="mask-type:alpha" maskUnits="userSpaceOnUse" x="0" y="0" width="48" height="48">
<rect width="48" height="48" fill="#0845BE"/>
</mask>
<g mask="url(#mask0_4074_69292)">
<path d="M24 8.5C24.4333 8.5 24.7917 8.35833 25.075 8.075C25.3583 7.79167 25.5 7.43333 25.5 7C25.5 6.56667 25.3583 6.20833 25.075 5.925C24.7917 5.64167 24.4333 5.5 24 5.5C23.5667 5.5 23.2083 5.64167 22.925 5.925C22.6417 6.20833 22.5 6.56667 22.5 7C22.5 7.43333 22.6417 7.79167 22.925 8.075C23.2083 8.35833 23.5667 8.5 24 8.5ZM36 46C33.2333 46 30.875 45.025 28.925 43.075C26.975 41.125 26 38.7667 26 36C26 33.2333 26.975 30.875 28.925 28.925C30.875 26.975 33.2333 26 36 26C38.7667 26 41.125 26.975 43.075 28.925C45.025 30.875 46 33.2333 46 36C46 38.7667 45.025 41.125 43.075 43.075C41.125 45.025 38.7667 46 36 46ZM35 42H37V37H42V35H37V30H35V35H30V37H35V42ZM14 18H34V14H14V18ZM23.35 42H10C8.9 42 7.95833 41.6083 7.175 40.825C6.39167 40.0417 6 39.1 6 38V10C6 8.9 6.39167 7.95833 7.175 7.175C7.95833 6.39167 8.9 6 10 6H18.4C18.8333 4.8 19.5583 3.83333 20.575 3.1C21.5917 2.36667 22.7333 2 24 2C25.2667 2 26.4083 2.36667 27.425 3.1C28.4417 3.83333 29.1667 4.8 29.6 6H38C39.1 6 40.0417 6.39167 40.825 7.175C41.6083 7.95833 42 8.9 42 10V23.4C41.0333 22.9333 40.0583 22.5833 39.075 22.35C38.0917 22.1167 37.0667 22 36 22C35.6333 22 35.2917 22.0083 34.975 22.025C34.6583 22.0417 34.3333 22.0833 34 22.15V22H14V26H26.25C25.65 26.5667 25.1083 27.1833 24.625 27.85C24.1417 28.5167 23.7167 29.2333 23.35 30H14V34H22.15C22.0833 34.3333 22.0417 34.6583 22.025 34.975C22.0083 35.2917 22 35.6333 22 36C22 37.1 22.1 38.125 22.3 39.075C22.5 40.025 22.85 41 23.35 42Z" fill="#0845BE"/>
</g>
</svg>
