<svg width="48" height="48" viewBox="0 0 48 48" fill="none" xmlns="http://www.w3.org/2000/svg">
<mask id="mask0_4072_91277" style="mask-type:alpha" maskUnits="userSpaceOnUse" x="0" y="0" width="48" height="48">
<rect width="48" height="48" fill="#C73434"/>
</mask>
<g mask="url(#mask0_4072_91277)">
<path d="M10 44C8.9 44 7.95833 43.6083 7.175 42.825C6.39167 42.0417 6 41.1 6 40V12C6 10.9 6.39167 9.95833 7.175 9.175C7.95833 8.39167 8.9 8 10 8H12V4H16V8H32V4H36V8H38C39.1 8 40.0417 8.39167 40.825 9.175C41.6083 9.95833 42 10.9 42 12V21.35C42 21.9167 41.8083 22.3917 41.425 22.775C41.0417 23.1583 40.5667 23.35 40 23.35C39.4333 23.35 38.9583 23.1583 38.575 22.775C38.1917 22.3917 38 21.9167 38 21.35V20H10V40H21.6C22.1667 40 22.6417 40.1917 23.025 40.575C23.4083 40.9583 23.6 41.4333 23.6 42C23.6 42.5667 23.4083 43.0417 23.025 43.425C22.6417 43.8083 22.1667 44 21.6 44H10ZM36 46C33.2333 46 30.875 45.025 28.925 43.075C26.975 41.125 26 38.7667 26 36C26 33.2333 26.975 30.875 28.925 28.925C30.875 26.975 33.2333 26 36 26C38.7667 26 41.125 26.975 43.075 28.925C45.025 30.875 46 33.2333 46 36C46 38.7667 45.025 41.125 43.075 43.075C41.125 45.025 38.7667 46 36 46ZM39.35 40.75L40.75 39.35L37 35.6V30H35V36.4L39.35 40.75Z" fill="#C73434"/>
</g>
</svg>
