<svg width="24" height="24" viewBox="0 0 24 24" fill="none" xmlns="http://www.w3.org/2000/svg">
<mask id="mask0_6022_20411" style="mask-type:alpha" maskUnits="userSpaceOnUse" x="0" y="0" width="24" height="24">
<rect width="24" height="24" fill="#D9D9D9"/>
</mask>
<g mask="url(#mask0_6022_20411)">
<path d="M1 22V12L8 7L15 12L13.575 13.425L8 9.45L3 13V20H5V15H11V22H9V17H7V22H1ZM23 4V14.125C22.7167 13.825 22.4083 13.5542 22.075 13.3125C21.7417 13.0708 21.3833 12.8583 21 12.675V6H12V7.4L10 5.95V4H23ZM17 10H19V8H17V10ZM18 24C16.6167 24 15.4375 23.5125 14.4625 22.5375C13.4875 21.5625 13 20.3833 13 19C13 17.6167 13.4875 16.4375 14.4625 15.4625C15.4375 14.4875 16.6167 14 18 14C19.3833 14 20.5625 14.4875 21.5375 15.4625C22.5125 16.4375 23 17.6167 23 19C23 20.3833 22.5125 21.5625 21.5375 22.5375C20.5625 23.5125 19.3833 24 18 24ZM17.5 22H18.5V19.5H21V18.5H18.5V16H17.5V18.5H15V19.5H17.5V22Z" fill="#1C1B1F"/>
</g>
</svg>
