<svg width="24" height="24" viewBox="0 0 24 24" fill="none" xmlns="http://www.w3.org/2000/svg">
<mask id="mask0_6022_20426" style="mask-type:alpha" maskUnits="userSpaceOnUse" x="0" y="0" width="24" height="24">
<rect width="24" height="24" fill="#D9D9D9"/>
</mask>
<g mask="url(#mask0_6022_20426)">
<path d="M6 22C5.45 22 4.97917 21.8042 4.5875 21.4125C4.19583 21.0208 4 20.55 4 20C4 19.45 4.19583 18.9792 4.5875 18.5875C4.97917 18.1958 5.45 18 6 18C6.55 18 7.02083 18.1958 7.4125 18.5875C7.80417 18.9792 8 19.45 8 20C8 20.55 7.80417 21.0208 7.4125 21.4125C7.02083 21.8042 6.55 22 6 22ZM6 16C5.45 16 4.97917 15.8042 4.5875 15.4125C4.19583 15.0208 4 14.55 4 14C4 13.45 4.19583 12.9792 4.5875 12.5875C4.97917 12.1958 5.45 12 6 12C6.55 12 7.02083 12.1958 7.4125 12.5875C7.80417 12.9792 8 13.45 8 14C8 14.55 7.80417 15.0208 7.4125 15.4125C7.02083 15.8042 6.55 16 6 16ZM6 10C5.45 10 4.97917 9.80417 4.5875 9.4125C4.19583 9.02083 4 8.55 4 8C4 7.45 4.19583 6.97917 4.5875 6.5875C4.97917 6.19583 5.45 6 6 6C6.55 6 7.02083 6.19583 7.4125 6.5875C7.80417 6.97917 8 7.45 8 8C8 8.55 7.80417 9.02083 7.4125 9.4125C7.02083 9.80417 6.55 10 6 10ZM12 10C11.45 10 10.9792 9.80417 10.5875 9.4125C10.1958 9.02083 10 8.55 10 8C10 7.45 10.1958 6.97917 10.5875 6.5875C10.9792 6.19583 11.45 6 12 6C12.55 6 13.0208 6.19583 13.4125 6.5875C13.8042 6.97917 14 7.45 14 8C14 8.55 13.8042 9.02083 13.4125 9.4125C13.0208 9.80417 12.55 10 12 10ZM18 10C17.45 10 16.9792 9.80417 16.5875 9.4125C16.1958 9.02083 16 8.55 16 8C16 7.45 16.1958 6.97917 16.5875 6.5875C16.9792 6.19583 17.45 6 18 6C18.55 6 19.0208 6.19583 19.4125 6.5875C19.8042 6.97917 20 7.45 20 8C20 8.55 19.8042 9.02083 19.4125 9.4125C19.0208 9.80417 18.55 10 18 10ZM12 16C11.45 16 10.9792 15.8042 10.5875 15.4125C10.1958 15.0208 10 14.55 10 14C10 13.45 10.1958 12.9792 10.5875 12.5875C10.9792 12.1958 11.45 12 12 12C12.55 12 13.0208 12.1958 13.4125 12.5875C13.8042 12.9792 14 13.45 14 14C14 14.55 13.8042 15.0208 13.4125 15.4125C13.0208 15.8042 12.55 16 12 16ZM13 22V18.925L18.525 13.425C18.675 13.275 18.8417 13.1667 19.025 13.1C19.2083 13.0333 19.3917 13 19.575 13C19.775 13 19.9667 13.0375 20.15 13.1125C20.3333 13.1875 20.5 13.3 20.65 13.45L21.575 14.375C21.7083 14.525 21.8125 14.6917 21.8875 14.875C21.9625 15.0583 22 15.2417 22 15.425C22 15.6083 21.9667 15.7958 21.9 15.9875C21.8333 16.1792 21.725 16.35 21.575 16.5L16.075 22H13ZM14.5 20.5H15.45L18.475 17.45L18.025 16.975L17.55 16.525L14.5 19.55V20.5ZM18.025 16.975L17.55 16.525L18.475 17.45L18.025 16.975Z" fill="#1C1B1F"/>
</g>
</svg>
