<svg width="24" height="24" viewBox="0 0 24 24" fill="none" xmlns="http://www.w3.org/2000/svg">
<mask id="mask0_6022_20436" style="mask-type:alpha" maskUnits="userSpaceOnUse" x="0" y="0" width="24" height="24">
<rect width="24" height="24" fill="#D9D9D9"/>
</mask>
<g mask="url(#mask0_6022_20436)">
<path d="M6 21V22C6 22.2833 5.90417 22.5208 5.7125 22.7125C5.52083 22.9042 5.28333 23 5 23H4C3.71667 23 3.47917 22.9042 3.2875 22.7125C3.09583 22.5208 3 22.2833 3 22V14L5.1 8C5.2 7.7 5.37917 7.45833 5.6375 7.275C5.89583 7.09167 6.18333 7 6.5 7H17.5C17.8167 7 18.1042 7.09167 18.3625 7.275C18.6208 7.45833 18.8 7.7 18.9 8L21 14V22C21 22.2833 20.9042 22.5208 20.7125 22.7125C20.5208 22.9042 20.2833 23 20 23H19C18.7167 23 18.4792 22.9042 18.2875 22.7125C18.0958 22.5208 18 22.2833 18 22V21H6ZM5.8 12H18.2L17.15 9H6.85L5.8 12ZM7.5 18C7.91667 18 8.27083 17.8542 8.5625 17.5625C8.85417 17.2708 9 16.9167 9 16.5C9 16.0833 8.85417 15.7292 8.5625 15.4375C8.27083 15.1458 7.91667 15 7.5 15C7.08333 15 6.72917 15.1458 6.4375 15.4375C6.14583 15.7292 6 16.0833 6 16.5C6 16.9167 6.14583 17.2708 6.4375 17.5625C6.72917 17.8542 7.08333 18 7.5 18ZM16.5 18C16.9167 18 17.2708 17.8542 17.5625 17.5625C17.8542 17.2708 18 16.9167 18 16.5C18 16.0833 17.8542 15.7292 17.5625 15.4375C17.2708 15.1458 16.9167 15 16.5 15C16.0833 15 15.7292 15.1458 15.4375 15.4375C15.1458 15.7292 15 16.0833 15 16.5C15 16.9167 15.1458 17.2708 15.4375 17.5625C15.7292 17.8542 16.0833 18 16.5 18ZM5 19H19V14H5V19Z" fill="#1C1B1F"/>
</g>
</svg>
