<svg width="24" height="24" viewBox="0 0 24 24" fill="none" xmlns="http://www.w3.org/2000/svg">
<mask id="mask0_6022_20449" style="mask-type:alpha" maskUnits="userSpaceOnUse" x="0" y="0" width="24" height="24">
<rect width="24" height="24" fill="#D9D9D9"/>
</mask>
<g mask="url(#mask0_6022_20449)">
<path d="M11.95 19C12.3 19 12.5958 18.8792 12.8375 18.6375C13.0792 18.3958 13.2 18.1 13.2 17.75C13.2 17.4 13.0792 17.1042 12.8375 16.8625C12.5958 16.6208 12.3 16.5 11.95 16.5C11.6 16.5 11.3042 16.6208 11.0625 16.8625C10.8208 17.1042 10.7 17.4 10.7 17.75C10.7 18.1 10.8208 18.3958 11.0625 18.6375C11.3042 18.8792 11.6 19 11.95 19ZM11.05 15.15H12.9C12.9 14.6 12.9625 14.1667 13.0875 13.85C13.2125 13.5333 13.5667 13.1 14.15 12.55C14.5833 12.1167 14.925 11.7042 15.175 11.3125C15.425 10.9208 15.55 10.45 15.55 9.9C15.55 8.96667 15.2083 8.25 14.525 7.75C13.8417 7.25 13.0333 7 12.1 7C11.15 7 10.3792 7.25 9.7875 7.75C9.19583 8.25 8.78333 8.85 8.55 9.55L10.2 10.2C10.2833 9.9 10.4708 9.575 10.7625 9.225C11.0542 8.875 11.5 8.7 12.1 8.7C12.6333 8.7 13.0333 8.84583 13.3 9.1375C13.5667 9.42917 13.7 9.75 13.7 10.1C13.7 10.4333 13.6 10.7458 13.4 11.0375C13.2 11.3292 12.95 11.6 12.65 11.85C11.9167 12.5 11.4667 12.9917 11.3 13.325C11.1333 13.6583 11.05 14.2667 11.05 15.15ZM12 23C10.6167 23 9.31667 22.7375 8.1 22.2125C6.88333 21.6875 5.825 20.975 4.925 20.075C4.025 19.175 3.3125 18.1167 2.7875 16.9C2.2625 15.6833 2 14.3833 2 13C2 11.6167 2.2625 10.3167 2.7875 9.1C3.3125 7.88333 4.025 6.825 4.925 5.925C5.825 5.025 6.88333 4.3125 8.1 3.7875C9.31667 3.2625 10.6167 3 12 3C13.3833 3 14.6833 3.2625 15.9 3.7875C17.1167 4.3125 18.175 5.025 19.075 5.925C19.975 6.825 20.6875 7.88333 21.2125 9.1C21.7375 10.3167 22 11.6167 22 13C22 14.3833 21.7375 15.6833 21.2125 16.9C20.6875 18.1167 19.975 19.175 19.075 20.075C18.175 20.975 17.1167 21.6875 15.9 22.2125C14.6833 22.7375 13.3833 23 12 23ZM12 21C14.2333 21 16.125 20.225 17.675 18.675C19.225 17.125 20 15.2333 20 13C20 10.7667 19.225 8.875 17.675 7.325C16.125 5.775 14.2333 5 12 5C9.76667 5 7.875 5.775 6.325 7.325C4.775 8.875 4 10.7667 4 13C4 15.2333 4.775 17.125 6.325 18.675C7.875 20.225 9.76667 21 12 21Z" fill="#1C1B1F"/>
</g>
</svg>
