<svg width="24" height="24" viewBox="0 0 24 24" fill="none" xmlns="http://www.w3.org/2000/svg">
<mask id="mask0_6022_20431" style="mask-type:alpha" maskUnits="userSpaceOnUse" x="0" y="0" width="24" height="24">
<rect width="24" height="24" fill="#D9D9D9"/>
</mask>
<g mask="url(#mask0_6022_20431)">
<path d="M8.5 19.5H15.5V18H8.5V19.5ZM12 16.5C13.3833 16.5 14.5625 16.0125 15.5375 15.0375C16.5125 14.0625 17 12.8833 17 11.5C17 10.1167 16.5125 8.9375 15.5375 7.9625C14.5625 6.9875 13.3833 6.5 12 6.5C10.6167 6.5 9.4375 6.9875 8.4625 7.9625C7.4875 8.9375 7 10.1167 7 11.5C7 12.8833 7.4875 14.0625 8.4625 15.0375C9.4375 16.0125 10.6167 16.5 12 16.5ZM12 14.825C11.8667 14.6417 11.725 14.3375 11.575 13.9125C11.425 13.4875 11.325 12.9333 11.275 12.25H12.725C12.675 12.9333 12.575 13.4875 12.425 13.9125C12.275 14.3375 12.1333 14.6417 12 14.825ZM10.2 14.5C9.8 14.25 9.45833 13.9333 9.175 13.55C8.89167 13.1667 8.7 12.7333 8.6 12.25H9.775C9.80833 12.6667 9.85833 13.0625 9.925 13.4375C9.99167 13.8125 10.0833 14.1667 10.2 14.5ZM13.8 14.5C13.9167 14.1667 14.0083 13.8125 14.075 13.4375C14.1417 13.0625 14.1917 12.6667 14.225 12.25H15.4C15.3 12.7333 15.1083 13.1667 14.825 13.55C14.5417 13.9333 14.2 14.25 13.8 14.5ZM8.6 10.75C8.7 10.2667 8.89167 9.83333 9.175 9.45C9.45833 9.06667 9.8 8.75 10.2 8.5C10.0833 8.83333 9.99167 9.1875 9.925 9.5625C9.85833 9.9375 9.80833 10.3333 9.775 10.75H8.6ZM11.275 10.75C11.325 10.0667 11.425 9.5125 11.575 9.0875C11.725 8.6625 11.8667 8.35833 12 8.175C12.1333 8.35833 12.275 8.6625 12.425 9.0875C12.575 9.5125 12.675 10.0667 12.725 10.75H11.275ZM14.225 10.75C14.1917 10.3333 14.1417 9.9375 14.075 9.5625C14.0083 9.1875 13.9167 8.83333 13.8 8.5C14.2 8.75 14.5417 9.06667 14.825 9.45C15.1083 9.83333 15.3 10.2667 15.4 10.75H14.225ZM4 23V3H18C18.55 3 19.0208 3.19583 19.4125 3.5875C19.8042 3.97917 20 4.45 20 5V21C20 21.55 19.8042 22.0208 19.4125 22.4125C19.0208 22.8042 18.55 23 18 23H4ZM6 21H18V5H6V21Z" fill="#1C1B1F"/>
</g>
</svg>
