<svg width="24" height="24" viewBox="0 0 24 24" fill="none" xmlns="http://www.w3.org/2000/svg">
<mask id="mask0_6022_20421" style="mask-type:alpha" maskUnits="userSpaceOnUse" x="0" y="0" width="24" height="24">
<rect width="24" height="24" fill="#D9D9D9"/>
</mask>
<g mask="url(#mask0_6022_20421)">
<path d="M12 25C9.31667 22.7167 7.3125 20.5958 5.9875 18.6375C4.6625 16.6792 4 14.8667 4 13.2C4 10.7 4.80417 8.70833 6.4125 7.225C8.02083 5.74167 9.88333 5 12 5H12.5C12.6667 5 12.8333 5.01667 13 5.05V7.075C12.8333 7.04167 12.6708 7.02083 12.5125 7.0125C12.3542 7.00417 12.1833 7 12 7C10.3167 7 8.89583 7.57917 7.7375 8.7375C6.57917 9.89583 6 11.3833 6 13.2C6 14.3833 6.49167 15.7375 7.475 17.2625C8.45833 18.7875 9.96667 20.4833 12 22.35C14.0333 20.4833 15.5417 18.7875 16.525 17.2625C17.5083 15.7375 18 14.3833 18 13.2V13H20V13.2C20 14.8667 19.3375 16.6792 18.0125 18.6375C16.6875 20.5958 14.6833 22.7167 12 25ZM12 15C12.55 15 13.0208 14.8042 13.4125 14.4125C13.8042 14.0208 14 13.55 14 13C14 12.45 13.8042 11.9792 13.4125 11.5875C13.0208 11.1958 12.55 11 12 11C11.45 11 10.9792 11.1958 10.5875 11.5875C10.1958 11.9792 10 12.45 10 13C10 13.55 10.1958 14.0208 10.5875 14.4125C10.9792 14.8042 11.45 15 12 15ZM18 11H20V8H23V6H20V3H18V6H15V8H18V11Z" fill="#1C1B1F"/>
</g>
</svg>
