<svg width="24" height="24" viewBox="0 0 24 24" fill="none" xmlns="http://www.w3.org/2000/svg">
<mask id="mask0_6022_20472" style="mask-type:alpha" maskUnits="userSpaceOnUse" x="0" y="0" width="24" height="24">
<rect width="24" height="24" fill="#D9D9D9"/>
</mask>
<g mask="url(#mask0_6022_20472)">
<path d="M11 19H13L13.3 17.5C13.5 17.4167 13.6875 17.3292 13.8625 17.2375C14.0375 17.1458 14.2167 17.0333 14.4 16.9L15.85 17.35L16.85 15.65L15.7 14.65C15.7333 14.4167 15.75 14.2 15.75 14C15.75 13.8 15.7333 13.5833 15.7 13.35L16.85 12.35L15.85 10.65L14.4 11.1C14.2167 10.9667 14.0375 10.8542 13.8625 10.7625C13.6875 10.6708 13.5 10.5833 13.3 10.5L13 9H11L10.7 10.5C10.5 10.5833 10.3125 10.6708 10.1375 10.7625C9.9625 10.8542 9.78333 10.9667 9.6 11.1L8.15 10.65L7.15 12.35L8.3 13.35C8.26667 13.5833 8.25 13.8 8.25 14C8.25 14.2 8.26667 14.4167 8.3 14.65L7.15 15.65L8.15 17.35L9.6 16.9C9.78333 17.0333 9.9625 17.1458 10.1375 17.2375C10.3125 17.3292 10.5 17.4167 10.7 17.5L11 19ZM12 16C11.45 16 10.9792 15.8042 10.5875 15.4125C10.1958 15.0208 10 14.55 10 14C10 13.45 10.1958 12.9792 10.5875 12.5875C10.9792 12.1958 11.45 12 12 12C12.55 12 13.0208 12.1958 13.4125 12.5875C13.8042 12.9792 14 13.45 14 14C14 14.55 13.8042 15.0208 13.4125 15.4125C13.0208 15.8042 12.55 16 12 16ZM5 23C4.45 23 3.97917 22.8042 3.5875 22.4125C3.19583 22.0208 3 21.55 3 21V7C3 6.45 3.19583 5.97917 3.5875 5.5875C3.97917 5.19583 4.45 5 5 5H19C19.55 5 20.0208 5.19583 20.4125 5.5875C20.8042 5.97917 21 6.45 21 7V21C21 21.55 20.8042 22.0208 20.4125 22.4125C20.0208 22.8042 19.55 23 19 23H5ZM5 21H19V7H5V21Z" fill="#1C1B1F"/>
</g>
</svg>
