<svg width="24" height="24" viewBox="0 0 24 24" fill="none" xmlns="http://www.w3.org/2000/svg">
<mask id="mask0_6022_20444" style="mask-type:alpha" maskUnits="userSpaceOnUse" x="0" y="0" width="24" height="24">
<rect width="24" height="24" fill="#D9D9D9"/>
</mask>
<g mask="url(#mask0_6022_20444)">
<path d="M20.95 23.375L18 20.425V22.65H16V17H21.65V19H19.4L22.35 21.95L20.95 23.375ZM12 23C10.6167 23 9.31667 22.7375 8.1 22.2125C6.88333 21.6875 5.825 20.975 4.925 20.075C4.025 19.175 3.3125 18.1167 2.7875 16.9C2.2625 15.6833 2 14.3833 2 13C2 11.6167 2.2625 10.3167 2.7875 9.1C3.3125 7.88333 4.025 6.825 4.925 5.925C5.825 5.025 6.88333 4.3125 8.1 3.7875C9.31667 3.2625 10.6167 3 12 3C13.3833 3 14.6833 3.2625 15.9 3.7875C17.1167 4.3125 18.175 5.025 19.075 5.925C19.975 6.825 20.6875 7.88333 21.2125 9.1C21.7375 10.3167 22 11.6167 22 13C22 13.3333 21.9833 13.6667 21.95 14C21.9167 14.3333 21.8667 14.6667 21.8 15H19.75C19.8333 14.6667 19.8958 14.3333 19.9375 14C19.9792 13.6667 20 13.3333 20 13C20 12.6667 19.9792 12.3333 19.9375 12C19.8958 11.6667 19.8333 11.3333 19.75 11H16.35C16.4 11.3333 16.4375 11.6667 16.4625 12C16.4875 12.3333 16.5 12.6667 16.5 13C16.5 13.3333 16.4875 13.6667 16.4625 14C16.4375 14.3333 16.4 14.6667 16.35 15H14.35C14.4 14.6667 14.4375 14.3333 14.4625 14C14.4875 13.6667 14.5 13.3333 14.5 13C14.5 12.6667 14.4875 12.3333 14.4625 12C14.4375 11.6667 14.4 11.3333 14.35 11H9.65C9.6 11.3333 9.5625 11.6667 9.5375 12C9.5125 12.3333 9.5 12.6667 9.5 13C9.5 13.3333 9.5125 13.6667 9.5375 14C9.5625 14.3333 9.6 14.6667 9.65 15H13V17H10.1C10.3 17.7167 10.5583 18.4042 10.875 19.0625C11.1917 19.7208 11.5667 20.35 12 20.95C12.3333 20.95 12.6667 20.9292 13 20.8875C13.3333 20.8458 13.6667 20.8083 14 20.775V22.825C13.6667 22.8583 13.3333 22.8958 13 22.9375C12.6667 22.9792 12.3333 23 12 23ZM4.25 15H7.65C7.6 14.6667 7.5625 14.3333 7.5375 14C7.5125 13.6667 7.5 13.3333 7.5 13C7.5 12.6667 7.5125 12.3333 7.5375 12C7.5625 11.6667 7.6 11.3333 7.65 11H4.25C4.16667 11.3333 4.10417 11.6667 4.0625 12C4.02083 12.3333 4 12.6667 4 13C4 13.3333 4.02083 13.6667 4.0625 14C4.10417 14.3333 4.16667 14.6667 4.25 15ZM5.1 9H8.05C8.2 8.38333 8.3875 7.77917 8.6125 7.1875C8.8375 6.59583 9.1 6.01667 9.4 5.45C8.48333 5.75 7.65833 6.20417 6.925 6.8125C6.19167 7.42083 5.58333 8.15 5.1 9ZM9.4 20.55C9.1 19.9833 8.8375 19.4042 8.6125 18.8125C8.3875 18.2208 8.2 17.6167 8.05 17H5.1C5.58333 17.85 6.19167 18.5792 6.925 19.1875C7.65833 19.7958 8.48333 20.25 9.4 20.55ZM10.1 9H13.9C13.7 8.28333 13.4417 7.59583 13.125 6.9375C12.8083 6.27917 12.4333 5.65 12 5.05C11.5667 5.65 11.1917 6.27917 10.875 6.9375C10.5583 7.59583 10.3 8.28333 10.1 9ZM15.95 9H18.9C18.4167 8.15 17.8083 7.42083 17.075 6.8125C16.3417 6.20417 15.5167 5.75 14.6 5.45C14.9 6.01667 15.1625 6.59583 15.3875 7.1875C15.6125 7.77917 15.8 8.38333 15.95 9Z" fill="#1C1B1F"/>
</g>
</svg>
