<svg width="24" height="24" viewBox="0 0 24 24" fill="none" xmlns="http://www.w3.org/2000/svg">
<mask id="mask0_6022_20401" style="mask-type:alpha" maskUnits="userSpaceOnUse" x="0" y="0" width="24" height="24">
<rect width="24" height="24" fill="#D9D9D9"/>
</mask>
<g mask="url(#mask0_6022_20401)">
<path d="M9.2 18L12 15.9L14.75 18L13.7 14.6L16.5 12.4H13.1L12 9L10.9 12.4H7.5L10.25 14.6L9.2 18ZM4 22C3.45 22 2.97917 21.8042 2.5875 21.4125C2.19583 21.0208 2 20.55 2 20V16.625C2 16.4417 2.05833 16.2833 2.175 16.15C2.29167 16.0167 2.44167 15.9333 2.625 15.9C3.025 15.7667 3.35417 15.525 3.6125 15.175C3.87083 14.825 4 14.4333 4 14C4 13.5667 3.87083 13.175 3.6125 12.825C3.35417 12.475 3.025 12.2333 2.625 12.1C2.44167 12.0667 2.29167 11.9833 2.175 11.85C2.05833 11.7167 2 11.5583 2 11.375V8C2 7.45 2.19583 6.97917 2.5875 6.5875C2.97917 6.19583 3.45 6 4 6H20C20.55 6 21.0208 6.19583 21.4125 6.5875C21.8042 6.97917 22 7.45 22 8V11.375C22 11.5583 21.9417 11.7167 21.825 11.85C21.7083 11.9833 21.5583 12.0667 21.375 12.1C20.975 12.2333 20.6458 12.475 20.3875 12.825C20.1292 13.175 20 13.5667 20 14C20 14.4333 20.1292 14.825 20.3875 15.175C20.6458 15.525 20.975 15.7667 21.375 15.9C21.5583 15.9333 21.7083 16.0167 21.825 16.15C21.9417 16.2833 22 16.4417 22 16.625V20C22 20.55 21.8042 21.0208 21.4125 21.4125C21.0208 21.8042 20.55 22 20 22H4ZM4 20H20V17.45C19.3833 17.0833 18.8958 16.5958 18.5375 15.9875C18.1792 15.3792 18 14.7167 18 14C18 13.2833 18.1792 12.6208 18.5375 12.0125C18.8958 11.4042 19.3833 10.9167 20 10.55V8H4V10.55C4.61667 10.9167 5.10417 11.4042 5.4625 12.0125C5.82083 12.6208 6 13.2833 6 14C6 14.7167 5.82083 15.3792 5.4625 15.9875C5.10417 16.5958 4.61667 17.0833 4 17.45V20Z" fill="#1C1B1F"/>
</g>
</svg>
