<svg width="24" height="24" viewBox="0 0 24 24" fill="none" xmlns="http://www.w3.org/2000/svg">
<mask id="mask0_6022_20416" style="mask-type:alpha" maskUnits="userSpaceOnUse" x="0" y="0" width="24" height="24">
<rect width="24" height="24" fill="#D9D9D9"/>
</mask>
<g mask="url(#mask0_6022_20416)">
<path d="M5.99896 12.95L4.99896 13.5C4.76563 13.6333 4.51563 13.6667 4.24896 13.6C3.98229 13.5333 3.78229 13.3833 3.64896 13.15L1.64896 9.65C1.51562 9.41667 1.48229 9.16667 1.54896 8.9C1.61563 8.63333 1.76563 8.43333 1.99896 8.3L7.74896 5H9.49896C9.64896 5 9.76979 5.04583 9.86146 5.1375C9.95313 5.22917 9.99896 5.35 9.99896 5.5V6C9.99896 6.55 10.1948 7.02083 10.5865 7.4125C10.9781 7.80417 11.449 8 11.999 8C12.549 8 13.0198 7.80417 13.4115 7.4125C13.8031 7.02083 13.999 6.55 13.999 6V5.5C13.999 5.35 14.0448 5.22917 14.1365 5.1375C14.2281 5.04583 14.349 5 14.499 5H16.249L21.999 8.3C22.2323 8.43333 22.3823 8.63333 22.449 8.9C22.5156 9.16667 22.4823 9.41667 22.349 9.65L20.349 13.15C20.2156 13.3833 20.0198 13.5292 19.7615 13.5875C19.5031 13.6458 19.249 13.6083 18.999 13.475L17.999 12.975V22C17.999 22.2833 17.9031 22.5208 17.7115 22.7125C17.5198 22.9042 17.2823 23 16.999 23H6.99896C6.71562 23 6.47813 22.9042 6.28646 22.7125C6.09479 22.5208 5.99896 22.2833 5.99896 22V12.95ZM7.99896 9.6V21H15.999V9.6L19.099 11.3L20.149 9.55L15.849 7.05C15.599 7.9 15.1281 8.60417 14.4365 9.1625C13.7448 9.72083 12.9323 10 11.999 10C11.0656 10 10.2531 9.72083 9.56146 9.1625C8.86979 8.60417 8.39896 7.9 8.14896 7.05L3.84896 9.55L4.89896 11.3L7.99896 9.6Z" fill="#1C1B1F"/>
</g>
</svg>
